REM DIRINDEX 1\4,1\2\5,1\2\6,1\3\7,1\3\8,1\3\9,1\3\10
REM DIRNAME folder01,folder02,folder03,folder04,folder05,folder06,folder07,folder08,folder09,folder10
TITLE ""
FILE "DISC2Track26.mp3" MP3
  TRACK 01 AUDIO
    TITLE "0:"
    INDEX 01 00:00:00
  TRACK 02 AUDIO
    TITLE "7:cjc107_1863"
    INDEX 01 00:00:01
  TRACK 03 AUDIO
    TITLE "0:"
    INDEX 01 00:03:72
  TRACK 04 AUDIO
    TITLE "8:cjc107_1864"
    INDEX 01 00:05:03
  TRACK 05 AUDIO
    TITLE "0:"
    INDEX 01 00:06:14
  TRACK 06 AUDIO
    TITLE "9:cjc107_1865"
    INDEX 01 00:06:18
  TRACK 07 AUDIO
    TITLE "0:"
    INDEX 01 00:07:39
  TRACK 08 AUDIO
    TITLE "8:cjc107_1866"
    INDEX 01 00:08:07
  TRACK 09 AUDIO
    TITLE "0:"
    INDEX 01 00:09:34
  TRACK 10 AUDIO
    TITLE "9:cjc107_1867"
    INDEX 01 00:09:42
  TRACK 11 AUDIO
    TITLE "0:"
    INDEX 01 00:10:61
  TRACK 12 AUDIO
    TITLE "8:cjc107_1868"
    INDEX 01 00:11:29
  TRACK 13 AUDIO
    TITLE "0:"
    INDEX 01 00:12:42
  TRACK 14 AUDIO
    TITLE "9:cjc107_1869"
    INDEX 01 00:12:46
  TRACK 15 AUDIO
    TITLE "0:"
    INDEX 01 00:13:57
  TRACK 16 AUDIO
    TITLE "8:cjc107_1870"
    INDEX 01 00:14:27
  TRACK 17 AUDIO
    TITLE "0:"
    INDEX 01 00:15:38
  TRACK 18 AUDIO
    TITLE "9:cjc107_1871"
    INDEX 01 00:15:42
  TRACK 19 AUDIO
    TITLE "0:"
    INDEX 01 00:17:57
  TRACK 20 AUDIO
    TITLE "8:cjc107_1872"
    INDEX 01 00:18:29
  TRACK 21 AUDIO
    TITLE "0:"
    INDEX 01 00:19:22
  TRACK 22 AUDIO
    TITLE "9:cjc107_1873"
    INDEX 01 00:19:30
  TRACK 23 AUDIO
    TITLE "0:"
    INDEX 01 00:20:41
  TRACK 24 AUDIO
    TITLE "8:cjc107_1874"
    INDEX 01 00:21:11
  TRACK 25 AUDIO
    TITLE "0:"
    INDEX 01 00:22:54
  TRACK 26 AUDIO
    TITLE "9:cjc107_1875"
    INDEX 01 00:22:60
  TRACK 27 AUDIO
    TITLE "0:"
    INDEX 01 00:24:69
  TRACK 28 AUDIO
    TITLE "8:cjc107_1876"
    INDEX 01 00:25:37
  TRACK 29 AUDIO
    TITLE "0:"
    INDEX 01 00:27:00
  TRACK 30 AUDIO
    TITLE "9:cjc107_1877"
    INDEX 01 00:27:04
  TRACK 31 AUDIO
    TITLE "0:"
    INDEX 01 00:28:68
  TRACK 32 AUDIO
    TITLE "8:cjc107_1878"
    INDEX 01 00:29:38
  TRACK 33 AUDIO
    TITLE "0:"
    INDEX 01 00:31:24
  TRACK 34 AUDIO
    TITLE "9:cjc107_1879"
    INDEX 01 00:31:31
  TRACK 35 AUDIO
    TITLE "0:"
    INDEX 01 00:33:03
  TRACK 36 AUDIO
    TITLE "8:cjc107_1880"
    INDEX 01 00:33:46
  TRACK 37 AUDIO
    TITLE "0:"
    INDEX 01 00:34:55
  TRACK 38 AUDIO
    TITLE "9:cjc107_1881"
    INDEX 01 00:34:57
  TRACK 39 AUDIO
    TITLE "0:"
    INDEX 01 00:36:54
  TRACK 40 AUDIO
    TITLE "8:cjc107_1882"
    INDEX 01 00:37:20
  TRACK 41 AUDIO
    TITLE "0:"
    INDEX 01 00:38:55
  TRACK 42 AUDIO
    TITLE "9:cjc107_1883"
    INDEX 01 00:38:57
  TRACK 43 AUDIO
    TITLE "0:"
    INDEX 01 00:40:15
  TRACK 44 AUDIO
    TITLE "8:cjc107_1884"
    INDEX 01 00:40:60
  TRACK 45 AUDIO
    TITLE "0:"
    INDEX 01 00:42:29
  TRACK 46 AUDIO
    TITLE "9:cjc107_1885"
    INDEX 01 00:42:33
  TRACK 47 AUDIO
    TITLE "0:"
    INDEX 01 00:44:12
  TRACK 48 AUDIO
    TITLE "8:cjc107_1886"
    INDEX 01 00:44:54
  TRACK 49 AUDIO
    TITLE "0:"
    INDEX 01 00:46:45
  TRACK 50 AUDIO
    TITLE "9:cjc107_1887"
    INDEX 01 00:46:47
  TRACK 51 AUDIO
    TITLE "0:"
    INDEX 01 00:48:34
  TRACK 52 AUDIO
    TITLE "8:cjc107_1888"
    INDEX 01 00:48:71
  TRACK 53 AUDIO
    TITLE "0:"
    INDEX 01 00:50:13
  TRACK 54 AUDIO
    TITLE "9:cjc107_1889"
    INDEX 01 00:50:15
  TRACK 55 AUDIO
    TITLE "0:"
    INDEX 01 00:52:12
  TRACK 56 AUDIO
    TITLE "8:cjc107_1890"
    INDEX 01 00:52:53
  TRACK 57 AUDIO
    TITLE "0:"
    INDEX 01 00:53:74
  TRACK 58 AUDIO
    TITLE "9:cjc107_1891"
    INDEX 01 00:54:01
  TRACK 59 AUDIO
    TITLE "0:"
    INDEX 01 00:56:04
  TRACK 60 AUDIO
    TITLE "10:cjc107_1892"
    INDEX 01 00:57:48
  TRACK 61 AUDIO
    TITLE "10:cjc107_1893"
    INDEX 01 01:11:25
  TRACK 62 AUDIO
    TITLE "10:cjc107_1894"
    INDEX 01 01:26:13
  TRACK 63 AUDIO
    TITLE "10:cjc107_1895"
    INDEX 01 01:34:28
  TRACK 64 AUDIO
    TITLE "0:"
    INDEX 01 01:37:60
